<svg width="32" height="32" viewBox="0 0 32 32" fill="none" xmlns="http://www.w3.org/2000/svg">
    <path d="M14.5 25.7333L5.70004 16.9333C5.56671 16.8 5.47204 16.6556 5.41604 16.5C5.36093 16.3444 5.33337 16.1778 5.33337 16C5.33337 15.8222 5.36093 15.6556 5.41604 15.5C5.47204 15.3444 5.56671 15.2 5.70004 15.0667L14.5 6.26666C14.7445 6.02222 15.0498 5.89422 15.416 5.88266C15.7832 5.872 16.1 6 16.3667 6.26666C16.6334 6.51111 16.7725 6.81644 16.784 7.18266C16.7947 7.54978 16.6667 7.86666 16.4 8.13333L9.86671 14.6667H24.7667C25.1445 14.6667 25.4614 14.7942 25.7174 15.0493C25.9725 15.3053 26.1 15.6222 26.1 16C26.1 16.3778 25.9725 16.6942 25.7174 16.9493C25.4614 17.2053 25.1445 17.3333 24.7667 17.3333H9.86671L16.4 23.8667C16.6445 24.1111 16.7725 24.4222 16.784 24.8C16.7947 25.1778 16.6667 25.4889 16.4 25.7333C16.1556 26 15.8445 26.1333 15.4667 26.1333C15.0889 26.1333 14.7667 26 14.5 25.7333Z" fill="var(--iconColor)" />
</svg>
