<svg width="16" height="16" viewBox="0 0 16 16" fill="none" xmlns="http://www.w3.org/2000/svg">
    <rect width="16" height="16" rx="4" fill="#3A63CE" />
    <path d="M7.40233 5.3312C7.37899 5.37378 7.34097 5.40642 7.29535 5.42302L3.20597 6.91143C2.93013 7.01183 2.70935 7.22834 2.5922 7.51333C2.47504 7.79832 2.4711 8.12845 2.58126 8.43109L3.41192 10.7133C3.52207 11.016 3.73729 11.2663 4.01022 11.4093C4.28316 11.5523 4.59145 11.5763 4.86729 11.4759L5.19937 11.355C5.30317 11.3172 5.41793 11.3707 5.45571 11.4745L6.21797 13.5688C6.27305 13.7201 6.38065 13.8453 6.51712 13.9168C6.65359 13.9883 6.80774 14.0003 6.94565 13.9501L7.98569 13.5716C8.12361 13.5214 8.234 13.4131 8.29258 13.2706C8.35116 13.1281 8.35313 12.9631 8.29805 12.8117L7.53579 10.7175C7.49801 10.6137 7.55153 10.4989 7.65533 10.4611L8.95667 9.98747C9.00229 9.97086 9.0524 9.97142 9.09764 9.98903L12.0466 11.1373C12.2069 11.1997 12.366 11.0441 12.3072 10.8825L9.28662 2.58371C9.2278 2.4221 9.00595 2.40518 8.9233 2.55599L7.40233 5.3312ZM13.137 5.8814C13.4511 6.74455 13.3486 7.67847 12.8726 8.37655C12.7878 8.50095 12.6057 8.46674 12.5542 8.32526L11.1207 4.38683C11.069 4.24466 11.1878 4.1011 11.3331 4.14314C12.1437 4.37761 12.8251 5.02445 13.137 5.8814Z" fill="white" />
</svg>
