<svg width="16" height="16" viewBox="0 0 16 16" fill="none" xmlns="http://www.w3.org/2000/svg">
    <path fill-rule="evenodd" clip-rule="evenodd" d="M4 0C1.79086 0 0 1.79086 0 4V12C0 14.2091 1.79086 16 4 16H12C14.2091 16 16 14.2091 16 12V4C16 1.79086 14.2091 0 12 0H4ZM7.29535 5.42302C7.34097 5.40642 7.37899 5.37378 7.40233 5.3312L8.9233 2.55599C9.00595 2.40518 9.2278 2.4221 9.28662 2.58371L12.3072 10.8825C12.366 11.0441 12.2069 11.1997 12.0466 11.1373L9.09764 9.98903C9.0524 9.97142 9.00229 9.97086 8.95667 9.98746L7.65533 10.4611C7.55153 10.4989 7.49801 10.6137 7.53579 10.7175L8.29805 12.8117C8.35313 12.9631 8.35116 13.1281 8.29258 13.2706C8.234 13.4131 8.12361 13.5214 7.98569 13.5716L6.94565 13.9501C6.80774 14.0003 6.65359 13.9883 6.51712 13.9168C6.38065 13.8453 6.27305 13.7201 6.21797 13.5688L5.45571 11.4745C5.41793 11.3707 5.30317 11.3172 5.19937 11.355L4.86729 11.4759C4.59145 11.5763 4.28316 11.5523 4.01022 11.4093C3.73729 11.2663 3.52207 11.016 3.41192 10.7133L2.58126 8.43109C2.4711 8.12845 2.47504 7.79832 2.5922 7.51333C2.70935 7.22834 2.93013 7.01183 3.20597 6.91143L7.29535 5.42302ZM12.8726 8.37655C13.3486 7.67847 13.4511 6.74455 13.137 5.8814C12.8251 5.02445 12.1437 4.37761 11.3331 4.14314C11.1878 4.1011 11.069 4.24466 11.1207 4.38683L12.5542 8.32526C12.6057 8.46674 12.7878 8.50095 12.8726 8.37655Z" fill="black" />
</svg>
